# xmcd
#
# Track frame offsets:
#	150
#	11887
#	36825
#	57175
#	75675
#	94950
#	116175
#	129750
#	142775
#	166137
#	178487
#	197825
#	216325
#	233550
#	260550
#	272012
#
# Disc length: 3863
#
# Revision: 1
# Processed by: cddbd v1.5.1PL0 Copyright (c) Steve Scherf et al.
# Submitted via: CDex 1.40Beta9
# Normalized: r0:TDELIM( - )
#
DISCID=e40f1510
DTITLE=Various Artist - Down In The Lucky Country
DYEAR=1900
DGENRE=Country
TTITLE0=Tiddas - By Your Side
TTITLE1=Mondo Rock - Come Said The Boy
TTITLE2=Goanna - Solid Rock
TTITLE3=The Triffids - Wide Open Road
TTITLE4=The Go-Betweens - Cattle and Cane
TTITLE5=The Gadflys - The Boating Tragedy
TTITLE6=The Reels - Love Will Find A Way
TTITLE7=The Dingoes - Way Out West
TTITLE8=Matt Walker - This Broken Heart
TTITLE9=Dave Warner - Suburban Boy
TTITLE10=Redgum - I Was Only 19 (A Walk In The Green Light)
TTITLE11=Eric Bogle - Now I'm Easy
TTITLE12=Archie Roach - Beggar Man
TTITLE13=Paul Kelly and The Messengers - From Little Things Big Things Grow
TTITLE14=Kev Carmody - Cannot Buy My Soul
TTITLE15=Christine Anu - My Island Home
EXTD=ID3G: 2
EXTT0=
EXTT1=
EXTT2=
EXTT3=
EXTT4=
EXTT5=
EXTT6=
EXTT7=
EXTT8=
EXTT9=
EXTT10=
EXTT11=
EXTT12=
EXTT13=
EXTT14=
EXTT15=
PLAYORDER=
